<svg xmlns="http://www.w3.org/2000/svg" width="87" height="86" stroke="#000" stroke-linecap="round" stroke-linejoin="round" fill="#fff" fill-rule="evenodd"><path d="M65.5631 62.335c.5615-4.5833.3933-5.2555 3.8776-4.5131l.8846.0762c2.6793.1193 6.184-.4223 8.2431-1.3594 4.4324-2.0151 7.0607-5.3795 2.6902-4.4955-9.9695 2.0151-10.655-1.2924-10.655-1.2924 10.5272-15.3039 14.928-34.7307 11.1295-39.486C71.3725-1.7059 53.4387 4.4277 53.1385 4.5869l-.0955.0173c-1.9698-.4004-4.1743-.6397-6.6507-.6789-4.5116-.0727-7.935 1.1588-10.5317 3.0886 0 0-31.9931-12.9142-30.5046 16.2409.3164 6.2021 9.0735 46.9304 19.5179 34.6285 3.8174-4.4983 7.5065-8.3018 7.5065-8.3018 1.8318 1.1924 4.0251 1.8006 6.3253 1.5821l.1778-.1486c-.0556.5586-.0311 1.1049.0712 1.7516-2.6901 2.9455-1.8997 3.4627-7.2789 4.5475-5.4423 1.099-2.245 3.0556-.158 3.5669 2.5307.6201 8.3853 1.4985 12.3423-3.9276l-.1576.6192c1.0554.8273.9841 5.9463 1.1337 9.6037s.3998 7.0708 1.1608 9.0831 1.6589 7.1953 8.7284 5.7108c5.9085-1.2405 10.426-3.0261 10.8377-19.6354" fill="#000" stroke-linecap="butt" stroke-width="3.7765"/><path d="M81.2596 52.0428c-9.9704 2.0151-10.6558-1.2925-10.6558-1.2925 10.5272-15.3047 14.9279-34.732 11.1301-39.4867C71.3734-1.7063 53.4388 4.4277 53.1395 4.5869l-.0963.0169c-1.9699-.4006-4.1744-.6393-6.6521-.6789-4.5115-.0725-7.9336 1.1588-10.5304 3.0882 0 0-31.9936-12.9136-30.5057 16.2413.3166 6.2025 9.0734 46.9307 19.5182 34.6289 3.8176-4.4984 7.5062-8.3018 7.5062-8.3018 1.832 1.1923 4.0252 1.8006 6.3245 1.5821l.1786-.1486c-.0556.5586-.0301 1.1049.0716 1.7515-2.6908 2.9456-1.9001 3.4627-7.279 4.5475-5.4428 1.099-2.2454 3.0557-.1578 3.567 2.5308.6201 8.3858 1.4984 12.3419-3.9276l-.1578.6191c1.0543.8273 1.7946 5.3816 1.6705 9.5101s-.2069 6.9629.6238 9.1768 1.6586 7.1953 8.7297 5.7108c5.9085-1.2406 8.9703-4.4554 9.3962-9.818.3023-3.8124.9863-3.2488 1.0295-6.6573l.5487-1.6136c.6327-5.168.1005-6.8352 3.7407-6.0598l.8846.0762c2.6793.1193 6.1858-.4223 8.2438-1.3594 4.4316-2.0152 7.06-5.3795 2.6903-4.4955z" fill="#336791" stroke="none"/><g fill="none" stroke="#fff" stroke-width="1.2588"><path d="M44.2874 55.0051c-.2746 9.6162.0689 19.2994 1.0293 21.6528s3.0174 6.9307 10.089 5.4465c5.908-1.2411 8.0575-3.6425 8.9904-8.9434.687-3.8999 2.0114-14.7311 2.1813-16.9503M35.8113 6.7983S3.7959-6.0223 5.2842 23.1326c.3166 6.2025 9.074 46.9321 19.5186 34.6296 3.8167-4.4988 7.2687-8.0274 7.2687-8.0274M53.1043 4.4583c-1.1082.3405 17.809-6.7756 28.5598 6.6839 3.7975 4.7549-.6031 24.1821-11.1302 39.4874m-.0001-.0002s.686 3.3085 10.6568 1.2921c4.3685-.8841 1.7394 2.4807-2.6912 4.4968-3.6363 1.6534-11.7885 2.0772-11.9217-.2076-.3427-5.8951 4.2907-4.1041 3.9563-5.5813-.3022-1.3303-2.3744-2.6359-3.745-5.8917-1.1966-2.8418-16.4112-24.6346 4.2193-21.398.7558-.1533-5.3807-19.2266-24.6878-19.5367S27.6508 27.0612 27.6508 27.0612m11.2329 25.5844c-2.6911 2.9453-1.8998 3.4625-7.279 4.5477-5.4427 1.0992-2.245 3.0554-.158 3.5665 2.5308.6205 8.3858 1.4989 12.3419-3.9285 1.2047-1.6525-.0071-4.2892-1.662-4.9614-.7996-.3244-1.8687-.7311-3.2429.7757z"/><path d="M38.7075 52.594c-.2712-1.7316.5807-3.7923 1.4937-6.2031 1.372-3.6173 4.5377-7.2351 2.0053-18.7095-1.8875-8.5506-14.5479-1.7795-14.5559-.6201s.5726 5.8766-.2115 11.3703c-1.0232 7.1686 4.6556 13.2315 11.1948 12.6112"/><path d="M35.6949 26.8876c-.0571.396.7399 1.4526 1.7791 1.5938s1.9255-.6839 1.9818-1.0795-.7397-.8323-1.7794-.974-1.9265.0647-1.9813.4597zm31.5998-.8074c.0563.396-.7397 1.4527-1.7791 1.5938s-1.9263-.6839-1.9831-1.0795.7413-.8322 1.7797-.974 1.9263.0647 1.9825.4599zm3.7136-2.7405c.171 3.1061-.6828 5.2218-.7905 8.5283-.1593 4.8061 2.3387 10.3072-1.4253 15.815"/></g></svg>