<svg xmlns="http://www.w3.org/2000/svg" width="80" height="80" stroke="#000" stroke-linecap="round" stroke-linejoin="round" fill="#fff" fill-rule="evenodd"><path d="M0 40v40h40 40V40 0H40 0v40zm64.4697-3.1873c2.0318.5079 3.5811 1.4095 5.0033 2.8825.7365.7873 1.8284 2.2223 1.9175 2.5652.0254.1015-3.4541 2.438-5.562 3.7459-.0762.0508-.3809-.2793-.7238-.7873-1.0285-1.4984-2.108-2.146-3.7587-2.2602-2.4254-.1652-3.9873 1.1047-3.9746 3.2253 0 .6222.0889.9905.3428 1.4985.5334 1.1047 1.5238 1.765 4.635 3.111 5.727 2.4636 8.1777 4.0889 9.7016 6.4 1.7015 2.5778 2.0825 6.6921.9269 9.7525-1.2698 3.3269-4.4191 5.5872-8.8507 6.3365-1.3715.2412-4.6222.2031-6.0952-.0636-3.2128-.5713-6.2604-2.1587-8.1399-4.2412-.7364-.8127-2.1713-2.9333-2.0825-3.0858.0381-.0508.3683-.2539.7365-.4698l2.9715-1.7143 2.2984-1.3333.4826.7111c.673 1.0286 2.1459 2.4381 3.0349 2.908 2.5523 1.346 6.0572 1.1555 7.7841-.3937.7364-.673 1.0413-1.3715 1.0413-2.4 0-.927-.1142-1.3334-.5969-2.0318-.6222-.8888-1.892-1.6381-5.4983-3.1999-4.1271-1.7778-5.9048-2.8826-7.5303-4.6349-.9396-1.0159-1.8284-2.6413-2.1967-4.0001-.3047-1.1302-.3811-3.9619-.1397-5.1048.8507-3.9872 3.8604-6.7682 8.2031-7.5936 1.4095-.2666 4.6857-.1651 6.0698.1778zm-18.7809 3.3396l.0254 3.2762h-5.2064-5.2064v14.7937 14.7937H31.619h-3.6826V58.2222 43.4285h-5.2063-5.2063v-3.2127c0-1.7777.038-3.2634.0888-3.3015.0381-.0509 6.3747-.0762 14.0572-.0636l13.9809.0381.0381 3.2635z" fill="#007acc" stroke="none"/></svg>